# xmcd CD database file
#
# Track frame offsets:
#	150
#	18352
#	41030
#	59398
#	74918
#	97349
#	121447
#	143146
#	169241
#	191391
#	207047
#
# Disc length: 2968 seconds
#
# Revision: 0
# Processed by: cddbd v1.4PL0 Copyright (c) Steve Scherf et al.
# Submitted via: CDex 1.51
#
DISCID=a80b960b
DTITLE=Various Artist - Smooth Jazz Volume I
DYEAR=1999
DGENRE=Jazz
TTITLE0=Tropical Breeze
TTITLE1=It's You
TTITLE2=Watching The Sun Set
TTITLE3=I Will Be Here For You
TTITLE4=Samba Alegre
TTITLE5=Punta Del Soul
TTITLE6=Songbird
TTITLE7=Make Me A Memory 
TTITLE8=All God's Children
TTITLE9=Perugia
TTITLE10=Mas Que Nada
EXTD=YEAR: 1999
EXTT0=
EXTT1=
EXTT2=
EXTT3=
EXTT4=
EXTT5=
EXTT6=
EXTT7=
EXTT8=
EXTT9=
EXTT10=
PLAYORDER=
